<svg width="16" height="16" viewBox="0 0 16 16" fill="none" xmlns="http://www.w3.org/2000/svg">
  <path d="M8 0C3.582 0 0 3.582 0 8C0 11.534 2.292 14.532 5.47 15.59C5.87 15.664 6.016 15.418 6.016 15.205C6.016 15.008 6.008 14.352 6.004 13.656C3.778 14.14 3.308 12.584 3.308 12.584C2.944 11.66 2.42 11.414 2.42 11.414C1.694 10.918 2.476 10.928 2.476 10.928C3.28 10.984 3.702 11.754 3.702 11.754C4.416 12.978 5.574 12.624 6.03 12.42C6.102 11.902 6.308 11.548 6.536 11.348C4.758 11.146 2.888 10.458 2.888 7.406C2.888 6.536 3.198 5.824 3.708 5.264C3.626 5.064 3.354 4.232 3.786 3.106C3.786 3.106 4.458 2.89 5.986 3.926C6.626 3.748 7.312 3.66 8 3.656C8.688 3.66 9.374 3.748 10.014 3.926C11.542 2.89 12.212 3.106 12.212 3.106C12.646 4.232 12.374 5.064 12.294 5.264C12.806 5.824 13.112 6.536 13.112 7.406C13.112 10.466 11.238 11.144 9.456 11.342C9.742 11.588 10 12.07 10 12.81C10 13.87 9.99 14.924 9.99 15.205C9.99 15.42 10.134 15.668 10.54 15.588C13.714 14.526 16 11.532 16 8C16 3.582 12.418 0 8 0Z" fill="#7A7B85"/>
</svg>
