<svg width="1600" height="900" viewBox="0 0 1600 900" fill="none" xmlns="http://www.w3.org/2000/svg" role="img" aria-labelledby="title desc">
  <title id="title">SuiMesh architecture</title>
  <desc id="desc">Clients, agents, and executors connect through SuiMesh SDK modules to Walrus storage and Sui integrity references.</desc>
  <rect width="1600" height="900" rx="36" fill="#fbfaf7"/>

  <defs>
    <marker id="arrowNeutral" markerWidth="14" markerHeight="14" refX="12" refY="7" orient="auto">
      <path d="M1 1 L13 7 L1 13 Z" fill="#b8b2aa"/>
    </marker>
    <marker id="arrowWalrus" markerWidth="14" markerHeight="14" refX="12" refY="7" orient="auto">
      <path d="M1 1 L13 7 L1 13 Z" fill="#83b99a"/>
    </marker>
    <marker id="arrowSui" markerWidth="14" markerHeight="14" refX="12" refY="7" orient="auto">
      <path d="M1 1 L13 7 L1 13 Z" fill="#6e9bd6"/>
    </marker>
  </defs>

  <text x="800" y="92" text-anchor="middle" font-family="Inter, Arial, sans-serif" font-size="52" font-weight="820" fill="#050505">SuiMesh Architecture</text>
  <text x="800" y="150" text-anchor="middle" font-family="Inter, Arial, sans-serif" font-size="22" fill="#666">Communication state stays portable across clients, agents, wallets, and Sui apps.</text>

  <g font-family="Inter, Arial, sans-serif" text-anchor="middle">
    <rect x="108" y="246" width="310" height="118" rx="24" fill="#fbfaf7" stroke="#ddd8cf" stroke-width="2"/>
    <text x="263" y="300" font-size="28" font-weight="780" fill="#050505">Clients</text>
    <text x="263" y="336" font-size="18" fill="#777">Web, CLI, TG, wallets</text>

    <rect x="108" y="410" width="310" height="118" rx="24" fill="#fbfaf7" stroke="#ddd8cf" stroke-width="2"/>
    <text x="263" y="464" font-size="28" font-weight="780" fill="#050505">Agents</text>
    <text x="263" y="500" font-size="18" fill="#777">Any framework via adapter</text>

    <rect x="108" y="574" width="310" height="118" rx="24" fill="#fbfaf7" stroke="#ddd8cf" stroke-width="2"/>
    <text x="263" y="628" font-size="28" font-weight="780" fill="#050505">Executors</text>
    <text x="263" y="664" font-size="18" fill="#777">Wallets, bots, services</text>
  </g>

  <path d="M418 305 H514" stroke="#b8b2aa" stroke-width="2.4" marker-end="url(#arrowNeutral)"/>
  <path d="M418 469 H514" stroke="#b8b2aa" stroke-width="2.4" marker-end="url(#arrowNeutral)"/>
  <path d="M418 633 H514" stroke="#b8b2aa" stroke-width="2.4" marker-end="url(#arrowNeutral)"/>

  <g font-family="Inter, Arial, sans-serif" text-anchor="middle">
    <rect x="514" y="210" width="572" height="512" rx="30" fill="#fbfaf7" stroke="#ddd8cf" stroke-width="2"/>
    <text x="800" y="284" font-size="44" font-weight="820" fill="#050505">SuiMesh SDK</text>

    <rect x="596" y="336" width="212" height="82" rx="18" fill="#fbfaf7" stroke="#ddd8cf" stroke-width="2"/>
    <rect x="832" y="336" width="212" height="82" rx="18" fill="#fbfaf7" stroke="#ddd8cf" stroke-width="2"/>
    <rect x="596" y="464" width="212" height="82" rx="18" fill="#fbfaf7" stroke="#ddd8cf" stroke-width="2"/>
    <rect x="832" y="464" width="212" height="82" rx="18" fill="#fbfaf7" stroke="#ddd8cf" stroke-width="2"/>
    <rect x="596" y="592" width="212" height="82" rx="18" fill="#fbfaf7" stroke="#ddd8cf" stroke-width="2"/>
    <rect x="832" y="592" width="212" height="82" rx="18" fill="#fbfaf7" stroke="#ddd8cf" stroke-width="2"/>

    <text x="702" y="386" font-size="20" font-weight="760" fill="#050505">Codec</text>
    <text x="938" y="386" font-size="20" font-weight="760" fill="#050505">Transport</text>
    <text x="702" y="514" font-size="20" font-weight="760" fill="#050505">Inspector</text>
    <text x="938" y="514" font-size="20" font-weight="760" fill="#050505">Policy</text>
    <text x="702" y="642" font-size="20" font-weight="760" fill="#050505">Trace Guard</text>
    <text x="938" y="642" font-size="20" font-weight="760" fill="#050505">Storage</text>
    <text x="800" y="700" font-size="20" fill="#777">JSON routes events. BCS proves heavy actions.</text>
  </g>

  <path d="M1086 377 H1192" stroke="#83b99a" stroke-width="2.4" marker-end="url(#arrowWalrus)"/>
  <path d="M1086 633 H1192" stroke="#6e9bd6" stroke-width="2.4" marker-end="url(#arrowSui)"/>

  <g font-family="Inter, Arial, sans-serif" text-anchor="middle">
    <rect x="1192" y="316" width="310" height="122" rx="24" fill="#fbfaf7" stroke="#c9e3d1" stroke-width="2"/>
    <text x="1347" y="366" font-size="28" font-weight="780" fill="#0f6b5d">Walrus</text>
    <text x="1347" y="406" font-size="18" fill="#666">Encrypted messages</text>
    <text x="1347" y="430" font-size="18" fill="#666">Memory and audit archives</text>

    <rect x="1192" y="572" width="310" height="122" rx="24" fill="#fbfaf7" stroke="#c4daf7" stroke-width="2"/>
    <text x="1347" y="622" font-size="28" font-weight="780" fill="#2368a8">Sui</text>
    <text x="1347" y="662" font-size="18" fill="#666">Ownership, status</text>
    <text x="1347" y="686" font-size="18" fill="#666">Claims and integrity refs</text>
  </g>
</svg>
